<svg width="36" height="36" viewBox="0 0 36 36" fill="none" xmlns="http://www.w3.org/2000/svg">
<rect width="36" height="36" rx="18" fill="#EFF6FF"/>
<path d="M18 28C16.6167 28 15.3167 27.7375 14.1 27.2125C12.8833 26.6875 11.825 25.975 10.925 25.075C10.025 24.175 9.3125 23.1167 8.7875 21.9C8.2625 20.6833 8 19.3833 8 18C8 16.6167 8.2625 15.3167 8.7875 14.1C9.3125 12.8833 10.025 11.825 10.925 10.925C11.825 10.025 12.8833 9.3125 14.1 8.7875C15.3167 8.2625 16.6167 8 18 8C19.0833 8 20.1083 8.15833 21.075 8.475C22.0417 8.79167 22.9333 9.23333 23.75 9.8L22.3 11.275C21.6667 10.875 20.9917 10.5625 20.275 10.3375C19.5583 10.1125 18.8 10 18 10C15.7833 10 13.8958 10.7792 12.3375 12.3375C10.7792 13.8958 10 15.7833 10 18C10 20.2167 10.7792 22.1042 12.3375 23.6625C13.8958 25.2208 15.7833 26 18 26C20.2167 26 22.1042 25.2208 23.6625 23.6625C25.2208 22.1042 26 20.2167 26 18C26 17.7 25.9833 17.4 25.95 17.1C25.9167 16.8 25.8667 16.5083 25.8 16.225L27.425 14.6C27.6083 15.1333 27.75 15.6833 27.85 16.25C27.95 16.8167 28 17.4 28 18C28 19.3833 27.7375 20.6833 27.2125 21.9C26.6875 23.1167 25.975 24.175 25.075 25.075C24.175 25.975 23.1167 26.6875 21.9 27.2125C20.6833 27.7375 19.3833 28 18 28ZM16.6 22.6L12.35 18.35L13.75 16.95L16.6 19.8L26.6 9.775L28 11.175L16.6 22.6Z" fill="#2563EB"/>
</svg>
